<svg width="382" height="460" viewBox="0 0 382 460" fill="none" xmlns="http://www.w3.org/2000/svg">
<path d="M361.776 340.765C362.901 340.765 363.813 339.853 363.813 338.728C363.813 337.603 362.901 336.691 361.776 336.691C360.651 336.691 359.739 337.603 359.739 338.728C359.739 339.853 360.651 340.765 361.776 340.765Z" fill="white" fill-opacity="0.3"/>
<path d="M210.656 333.987C210.656 331.557 208.686 329.587 206.256 329.587C203.826 329.587 201.855 331.557 201.855 333.987C201.855 336.417 203.825 338.388 206.256 338.388C208.687 338.388 210.656 336.417 210.656 333.987Z" fill="white" fill-opacity="0.3"/>
<path d="M78.8573 189.451C78.8573 190.668 79.844 191.654 81.0605 191.654C82.277 191.654 83.2637 190.668 83.2637 189.451C83.2637 188.235 82.277 187.248 81.0605 187.248C79.843 187.248 78.8573 188.235 78.8573 189.451Z" fill="white" fill-opacity="0.3"/>
<path d="M305.759 231.942C305.759 231.112 305.086 230.44 304.257 230.44C303.428 230.44 302.755 231.112 302.755 231.942C302.755 232.771 303.428 233.444 304.257 233.444C305.086 233.444 305.759 232.771 305.759 231.942Z" fill="white" fill-opacity="0.3"/>
<path d="M118.68 187.061C118.68 186.368 118.118 185.806 117.424 185.806C116.731 185.806 116.169 186.368 116.169 187.061C116.169 187.755 116.731 188.317 117.424 188.317C118.118 188.317 118.68 187.755 118.68 187.061Z" fill="white" fill-opacity="0.3"/>
<path d="M339.758 114.801C341.236 114.183 341.933 112.485 341.315 111.007C340.697 109.53 338.999 108.833 337.521 109.451C336.044 110.069 335.347 111.767 335.965 113.244C336.583 114.722 338.281 115.419 339.758 114.801Z" fill="white" fill-opacity="0.3"/>
<path d="M78.9933 412.436C78.9933 415.102 81.1544 417.263 83.8211 417.263C86.4868 417.263 88.649 415.102 88.649 412.436C88.649 409.769 86.4878 407.608 83.8211 407.608C81.1544 407.608 78.9933 409.769 78.9933 412.436Z" fill="white" fill-opacity="0.3"/>
<path d="M290.518 41.7012C288.148 41.7012 286.228 43.6217 286.228 45.9912C286.228 48.3606 288.148 50.2812 290.518 50.2812C292.887 50.2812 294.808 48.3606 294.808 45.9912C294.808 43.6217 292.887 41.7012 290.518 41.7012Z" fill="white" fill-opacity="0.3"/>
<path d="M303.824 367.187C305.082 367.187 306.103 366.166 306.103 364.907C306.103 363.649 305.082 362.628 303.824 362.628C302.564 362.628 301.544 363.649 301.544 364.907C301.544 366.167 302.564 367.187 303.824 367.187Z" fill="white" fill-opacity="0.3"/>
<path d="M163.706 380.57C166.268 380.57 168.345 378.493 168.345 375.931C168.345 373.369 166.268 371.292 163.706 371.292C161.144 371.292 159.067 373.369 159.067 375.931C159.067 378.493 161.144 380.57 163.706 380.57Z" fill="white" fill-opacity="0.3"/>
<path d="M199.89 92.8516C200.883 92.8516 201.689 92.046 201.689 91.0522C201.689 90.0585 200.883 89.2529 199.89 89.2529C198.896 89.2529 198.09 90.0585 198.09 91.0522C198.09 92.046 198.896 92.8516 199.89 92.8516Z" fill="white" fill-opacity="0.3"/>
<path d="M379.873 399.522C378.74 399.522 377.822 400.441 377.822 401.574C377.822 402.707 378.74 403.626 379.873 403.626C381.007 403.626 381.925 402.707 381.925 401.574C381.925 400.441 381.007 399.522 379.873 399.522Z" fill="white" fill-opacity="0.3"/>
<path d="M18.6262 81.3956C17.882 81.3956 17.2787 81.999 17.2787 82.7441C17.2787 83.4883 17.882 84.0917 18.6262 84.0917C19.3704 84.0917 19.9747 83.4883 19.9747 82.7441C19.9747 81.999 19.3714 81.3956 18.6262 81.3956Z" fill="white" fill-opacity="0.3"/>
<path d="M266.316 234.201C267.257 234.201 268.02 233.438 268.02 232.496C268.02 231.555 267.257 230.792 266.316 230.792C265.374 230.792 264.611 231.555 264.611 232.496C264.611 233.438 265.374 234.201 266.316 234.201Z" fill="white" fill-opacity="0.3"/>
<path d="M66.1027 311.438C66.1027 312.308 66.8078 313.014 67.6781 313.014C68.5484 313.014 69.2535 312.308 69.2535 311.438C69.2535 310.568 68.5484 309.863 67.6781 309.863C66.8078 309.863 66.1027 310.568 66.1027 311.438Z" fill="white" fill-opacity="0.3"/>
<path d="M134.687 71.3418C134.687 70.6348 134.114 70.0618 133.407 70.0618C132.7 70.0618 132.127 70.6348 132.127 71.3418C132.127 72.0488 132.7 72.6219 133.407 72.6219C134.114 72.6219 134.687 72.0488 134.687 71.3418Z" fill="white" fill-opacity="0.3"/>
<path d="M73.2873 457.487C75.1046 457.487 76.5779 456.013 76.5779 454.196C76.5779 452.379 75.1046 450.906 73.2873 450.906C71.4699 450.906 69.9967 452.379 69.9967 454.196C69.9967 456.013 71.4699 457.487 73.2873 457.487Z" fill="white" fill-opacity="0.3"/>
<path d="M239.871 219.673C239.871 220.885 240.853 221.866 242.064 221.866C243.276 221.866 244.258 220.885 244.258 219.673C244.258 218.461 243.276 217.48 242.064 217.48C240.853 217.48 239.871 218.461 239.871 219.673Z" fill="white" fill-opacity="0.3"/>
<path d="M198.595 224.326C201.15 224.326 203.22 222.255 203.22 219.7C203.22 217.146 201.15 215.075 198.595 215.075C196.04 215.075 193.97 217.146 193.97 219.7C193.97 222.255 196.04 224.326 198.595 224.326Z" fill="white" fill-opacity="0.3"/>
<path d="M247.622 23.1446C247.622 22.4591 247.067 21.9027 246.381 21.9027C245.695 21.9027 245.139 22.4591 245.139 23.1446C245.139 23.8301 245.695 24.3865 246.381 24.3865C247.067 24.3865 247.622 23.8311 247.622 23.1446Z" fill="white" fill-opacity="0.3"/>
<path d="M232.778 72.8155C232.778 71.4024 231.633 70.2573 230.22 70.2573C228.807 70.2573 227.662 71.4024 227.662 72.8155C227.662 74.2285 228.807 75.3736 230.22 75.3736C231.633 75.3736 232.778 74.2285 232.778 72.8155Z" fill="white" fill-opacity="0.3"/>
<path d="M14.1103 254.859C14.1103 256.332 15.3043 257.526 16.777 257.526C18.2497 257.526 19.4437 256.332 19.4437 254.859C19.4437 253.387 18.2497 252.193 16.777 252.193C15.3043 252.193 14.1103 253.387 14.1103 254.859Z" fill="white" fill-opacity="0.3"/>
<path d="M69.2701 241.729C68.567 241.729 67.9969 242.299 67.9969 243.003C67.9969 243.706 68.567 244.276 69.2701 244.276C69.9732 244.276 70.5433 243.706 70.5433 243.003C70.5433 242.299 69.9732 241.729 69.2701 241.729Z" fill="white" fill-opacity="0.3"/>
<path d="M104.632 295.854C105.418 295.854 106.054 295.216 106.054 294.431C106.054 293.646 105.417 293.008 104.632 293.008C103.846 293.008 103.209 293.645 103.209 294.431C103.209 295.217 103.846 295.854 104.632 295.854Z" fill="white" fill-opacity="0.3"/>
<path d="M12.6904 199.528C12.6904 197.454 11.0104 195.774 8.93729 195.774C6.86514 195.774 5.18415 197.454 5.18415 199.528C5.18415 201.6 6.86416 203.281 8.93729 203.281C11.0094 203.28 12.6904 201.6 12.6904 199.528Z" fill="white" fill-opacity="0.3"/>
<path d="M175.284 149.32C172.748 149.32 170.693 151.375 170.693 153.911C170.693 156.447 172.748 158.502 175.284 158.502C177.82 158.502 179.875 156.447 179.875 153.911C179.875 151.375 177.82 149.32 175.284 149.32Z" fill="white" fill-opacity="0.3"/>
<path d="M246.578 306.082C246.578 307.141 247.437 308.001 248.497 308.001C249.556 308.001 250.415 307.142 250.415 306.082C250.415 305.023 249.557 304.164 248.497 304.164C247.438 304.164 246.578 305.022 246.578 306.082Z" fill="white" fill-opacity="0.3"/>
<path d="M190.444 399.619C190.444 398.818 189.795 398.169 188.994 398.169C188.193 398.169 187.544 398.818 187.544 399.619C187.544 400.42 188.193 401.07 188.994 401.07C189.795 401.07 190.444 400.42 190.444 399.619Z" fill="white" fill-opacity="0.3"/>
<path d="M379.446 201.964C380.581 201.964 381.501 201.043 381.501 199.908C381.501 198.773 380.581 197.853 379.446 197.853C378.311 197.853 377.39 198.773 377.39 199.908C377.389 201.043 378.311 201.964 379.446 201.964Z" fill="white" fill-opacity="0.3"/>
<path d="M106.228 339.477C108.352 339.477 110.074 337.756 110.074 335.632C110.074 333.508 108.352 331.787 106.228 331.787C104.105 331.787 102.383 333.508 102.383 335.632C102.383 337.756 104.104 339.477 106.228 339.477Z" fill="white" fill-opacity="0.3"/>
<path d="M40.3354 208.978C40.3354 210.154 41.2888 211.108 42.4652 211.108C43.6416 211.108 44.595 210.154 44.595 208.978C44.595 207.801 43.6416 206.848 42.4652 206.848C41.2888 206.848 40.3354 207.801 40.3354 208.978Z" fill="white" fill-opacity="0.3"/>
<path d="M245.543 134.699C247.983 134.699 249.962 132.721 249.962 130.281C249.962 127.841 247.983 125.863 245.543 125.863C243.103 125.863 241.125 127.841 241.125 130.281C241.125 132.721 243.103 134.699 245.543 134.699Z" fill="white" fill-opacity="0.3"/>
<path d="M113.878 433.285C113.878 434.155 114.583 434.86 115.452 434.86C116.321 434.86 117.026 434.155 117.026 433.285C117.026 432.416 116.321 431.711 115.452 431.711C114.583 431.711 113.878 432.416 113.878 433.285Z" fill="white" fill-opacity="0.3"/>
<path d="M23.1695 322.258C23.1695 323.037 23.8012 323.669 24.5806 323.669C25.36 323.669 25.9917 323.037 25.9917 322.258C25.9917 321.478 25.36 320.846 24.5806 320.846C23.8012 320.846 23.1695 321.478 23.1695 322.258Z" fill="white" fill-opacity="0.3"/>
<path d="M204.724 427.549C206.593 427.549 208.108 426.034 208.108 424.165C208.108 422.297 206.593 420.782 204.724 420.782C202.856 420.782 201.341 422.297 201.341 424.165C201.341 426.034 202.856 427.549 204.724 427.549Z" fill="white" fill-opacity="0.3"/>
<path d="M155.67 236.892C154.872 236.892 154.225 237.538 154.225 238.336C154.225 239.134 154.872 239.78 155.67 239.78C156.468 239.78 157.114 239.134 157.114 238.336C157.113 237.539 156.467 236.892 155.67 236.892Z" fill="white" fill-opacity="0.3"/>
<path d="M323.878 78.1518C325.213 78.1518 326.296 77.0695 326.296 75.7345C326.296 74.3994 325.213 73.3171 323.878 73.3171C322.543 73.3171 321.461 74.3994 321.461 75.7345C321.461 77.0695 322.543 78.1518 323.878 78.1518Z" fill="white" fill-opacity="0.3"/>
<path d="M243.797 404.603C243.037 404.603 242.421 405.219 242.421 405.978C242.421 406.738 243.037 407.354 243.797 407.354C244.557 407.354 245.173 406.738 245.173 405.978C245.173 405.219 244.557 404.603 243.797 404.603Z" fill="white" fill-opacity="0.3"/>
<path d="M155.432 290.178C155.432 292.055 156.954 293.578 158.832 293.578C160.711 293.578 162.232 292.055 162.232 290.178C162.232 288.299 160.71 286.778 158.832 286.778C156.954 286.777 155.432 288.299 155.432 290.178Z" fill="white" fill-opacity="0.3"/>
<path d="M58.1574 90.71C60.4338 90.71 62.2792 88.8646 62.2792 86.5882C62.2792 84.3118 60.4338 82.4664 58.1574 82.4664C55.881 82.4664 54.0356 84.3118 54.0356 86.5882C54.0356 88.8646 55.881 90.71 58.1574 90.71Z" fill="white" fill-opacity="0.3"/>
<path d="M296.873 122.33C298.763 122.33 300.294 120.798 300.294 118.908C300.294 117.018 298.762 115.487 296.873 115.487C294.983 115.487 293.451 117.019 293.451 118.908C293.451 120.798 294.984 122.33 296.873 122.33Z" fill="white" fill-opacity="0.3"/>
<path d="M83.7321 136.691C85.6283 136.691 87.1655 135.154 87.1655 133.258C87.1655 131.362 85.6283 129.825 83.7321 129.825C81.8359 129.825 80.2988 131.362 80.2988 133.258C80.2988 135.154 81.8359 136.691 83.7321 136.691Z" fill="white" fill-opacity="0.3"/>
<path d="M347.778 226.394C350.053 226.394 351.899 224.549 351.899 222.273C351.899 219.998 350.053 218.152 347.778 218.152C345.502 218.152 343.657 219.998 343.657 222.273C343.657 224.549 345.502 226.394 347.778 226.394Z" fill="white" fill-opacity="0.3"/>
<path d="M305.095 434.421C305.095 435.666 306.104 436.674 307.348 436.674C308.593 436.674 309.601 435.665 309.601 434.421C309.601 433.176 308.592 432.168 307.348 432.168C306.103 432.168 305.095 433.177 305.095 434.421Z" fill="white" fill-opacity="0.3"/>
<path d="M314.885 173.411C314.885 171.342 313.208 169.665 311.138 169.665C309.069 169.665 307.392 171.342 307.392 173.411C307.392 175.48 309.069 177.157 311.138 177.157C313.208 177.157 314.885 175.479 314.885 173.411Z" fill="white" fill-opacity="0.3"/>
<path d="M130.171 119.541C130.171 118.652 129.45 117.932 128.562 117.932C127.674 117.932 126.954 118.653 126.954 119.541C126.954 120.429 127.675 121.15 128.562 121.15C129.451 121.15 130.171 120.429 130.171 119.541Z" fill="white" fill-opacity="0.3"/>
<path d="M373.821 367.14C375.909 367.14 377.602 365.447 377.602 363.359C377.602 361.272 375.909 359.579 373.821 359.579C371.733 359.579 370.04 361.272 370.04 363.359C370.04 365.447 371.733 367.14 373.821 367.14Z" fill="white" fill-opacity="0.3"/>
<path d="M180.473 448.224C182.544 448.224 184.223 446.545 184.223 444.474C184.223 442.403 182.544 440.724 180.473 440.724C178.402 440.724 176.723 442.403 176.723 444.474C176.723 446.545 178.402 448.224 180.473 448.224Z" fill="white" fill-opacity="0.3"/>
<path d="M218.856 172.492C221.233 172.492 223.16 170.565 223.16 168.188C223.16 165.811 221.233 163.884 218.856 163.884C216.479 163.884 214.552 165.811 214.552 168.188C214.552 170.565 216.479 172.492 218.856 172.492Z" fill="white" fill-opacity="0.3"/>
<path d="M238.709 265.179C238.709 264.321 238.013 263.624 237.154 263.624C236.296 263.624 235.599 264.321 235.599 265.179C235.599 266.038 236.296 266.734 237.154 266.734C238.013 266.734 238.709 266.038 238.709 265.179Z" fill="white" fill-opacity="0.3"/>
<path d="M41.2575 139.884C41.9629 139.884 42.5346 139.312 42.5346 138.607C42.5346 137.902 41.9629 137.33 41.2575 137.33C40.5522 137.33 39.9804 137.902 39.9804 138.607C39.9804 139.312 40.5522 139.884 41.2575 139.884Z" fill="white" fill-opacity="0.3"/>
<path d="M278.906 173.096C278.906 172.007 278.023 171.123 276.933 171.123C275.843 171.123 274.959 172.006 274.959 173.096C274.959 174.185 275.842 175.068 276.933 175.068C278.023 175.068 278.906 174.185 278.906 173.096Z" fill="white" fill-opacity="0.3"/>
<path d="M31.0073 363.897C30.2083 363.897 29.561 364.544 29.561 365.343C29.561 366.142 30.2083 366.79 31.0073 366.79C31.8062 366.79 32.4536 366.142 32.4536 365.343C32.4526 364.544 31.8052 363.897 31.0073 363.897Z" fill="white" fill-opacity="0.3"/>
</svg>
